<?xml version="1.0" encoding="utf-8"?>
<!-- Generator: Adobe Illustrator 17.0.0, SVG Export Plug-In . SVG Version: 6.00 Build 0)  -->
<!DOCTYPE svg PUBLIC "-//W3C//DTD SVG 1.1//EN" "http://www.w3.org/Graphics/SVG/1.1/DTD/svg11.dtd">
<svg version="1.1" id="Layer_1" xmlns="http://www.w3.org/2000/svg" xmlns:xlink="http://www.w3.org/1999/xlink" x="0px" y="0px"
	 width="60px" height="60px" viewBox="0 0 60 60" enable-background="new 0 0 60 60" xml:space="preserve">
<g>
	<path fill-rule="evenodd" clip-rule="evenodd" fill="#4A5456" d="M45.014,30.42c0.907-2.076,1.852-4.138,2.706-6.236
		c0.452-1.11,1.177-1.595,2.361-1.544c1.116,0.048,2.237,0.01,3.357,0.01c0.063,0.302-0.12,0.462-0.216,0.642
		c-2.395,4.504-4.796,9.005-7.199,13.506c-1.438,2.691-3.604,4.172-6.74,4.059c-0.879-0.031-1.76-0.022-2.64,0.003
		c-0.447,0.014-0.532-0.122-0.437-0.554c0.163-0.737,0.244-1.494,0.377-2.238c0.169-0.943,0.536-1.244,1.487-1.249
		c0.611-0.003,1.223,0.016,1.833-0.006c1.426-0.052,2.354-1.316,1.967-2.692c-1.022-3.616-2.049-7.23-3.094-10.841
		c-0.145-0.496-0.103-0.67,0.475-0.643c1.025,0.049,2.054,0.006,3.08,0.017c1.002,0.012,1.317,0.259,1.481,1.244
		c0.341,2.048,0.653,4.101,0.978,6.149c0.019,0.114,0.039,0.228,0.059,0.342C44.905,30.399,44.96,30.409,45.014,30.42z"/>
	<path fill-rule="evenodd" clip-rule="evenodd" fill="#4A5456" d="M11.06,19.168c2.391,0,2.584,0.235,2.128,2.602
		c-0.168,0.869-0.168,0.869,0.719,0.871c1.776,0.002,1.776,0.002,1.438,1.793c-0.283,1.504-0.283,1.504-1.801,1.504
		c-0.195,0-0.393,0.02-0.586-0.003c-0.391-0.045-0.553,0.097-0.612,0.507c-0.154,1.061-0.374,2.113-0.552,3.171
		c-0.229,1.362,0.177,1.937,1.576,1.984c0.708,0.025,0.704,0.282,0.591,0.813c-0.174,0.811-0.306,1.63-0.436,2.449
		c-0.051,0.31-0.163,0.469-0.51,0.477c-1.082,0.021-2.148-0.05-3.174-0.421c-1.713-0.621-2.563-1.866-2.354-3.671
		c0.177-1.524,0.473-3.037,0.759-4.546c0.111-0.582,0.039-0.812-0.637-0.776c-1.148,0.058-1.151,0.012-0.972-1.111
		c0.026-0.169,0.058-0.336,0.091-0.504c0.102-0.524,0.051-1.178,0.351-1.537c0.297-0.356,0.967-0.102,1.472-0.122
		C8.867,22.636,8.956,22.49,9,22.206c0.117-0.747,0.318-1.484,0.382-2.234c0.056-0.648,0.292-0.917,0.946-0.81
		C10.565,19.2,10.814,19.168,11.06,19.168z"/>
	<path fill-rule="evenodd" clip-rule="evenodd" fill="#4A5456" d="M20.824,25.153c0.907-1.125,1.889-2.004,3.22-2.439
		c0.139-0.046,0.28-0.086,0.424-0.116c1.183-0.246,1.3-0.141,1.105,1.021c-0.145,0.867-0.318,1.729-0.441,2.598
		c-0.053,0.369-0.183,0.464-0.561,0.459c-2.574-0.027-3.938,1.06-4.471,3.587c-0.306,1.457-0.558,2.925-0.792,4.395
		c-0.065,0.418-0.184,0.576-0.631,0.562c-1.049-0.036-2.102-0.022-3.151-0.006c-0.387,0.007-0.563-0.03-0.475-0.514
		c0.694-3.816,1.361-7.64,2.025-11.461c0.072-0.417,0.198-0.643,0.69-0.601c0.655,0.056,1.32-0.006,1.978,0.034
		c1.003,0.06,1.387,0.564,1.234,1.557C20.933,24.538,20.876,24.845,20.824,25.153z"/>
	<path fill-rule="evenodd" clip-rule="evenodd" fill="#0EAFC4" d="M25.736,28.87c0.027-3.404,2.901-6.323,6.291-6.396
		c0.381-0.009,0.586,0.035,0.478,0.531c-0.212,0.975-0.351,1.966-0.5,2.954c-0.049,0.322-0.248,0.432-0.517,0.534
		c-2.081,0.793-2.495,3.039-0.816,4.465c0.227,0.192,0.374,0.354,0.316,0.664c-0.182,0.982-0.371,1.964-0.517,2.951
		c-0.078,0.525-0.315,0.469-0.698,0.32C27.41,33.985,25.716,31.47,25.736,28.87z"/>
	<path fill-rule="evenodd" clip-rule="evenodd" fill="#0EAFC4" d="M38.623,28.961c-0.006,3.433-2.818,6.342-6.142,6.39
		c-0.55,0.008-0.681-0.168-0.579-0.672c0.176-0.883,0.33-1.77,0.482-2.657c0.062-0.365,0.202-0.562,0.609-0.687
		c0.99-0.303,1.573-1.021,1.721-2.065c0.135-0.951-0.188-1.743-0.928-2.321c-0.337-0.264-0.445-0.465-0.343-0.9
		c0.212-0.898,0.363-1.815,0.476-2.732c0.065-0.534,0.277-0.499,0.678-0.354C36.955,23.818,38.628,26.296,38.623,28.961z"/>
</g>
</svg>
