<svg xmlns="http://www.w3.org/2000/svg" viewBox="0 0 56.73 45"><defs><style>.cls-1{fill:#1b3f91;}.cls-2{fill:#ffcb00;}</style></defs><title>Varlık 1</title><g id="katman_2" data-name="katman 2"><g id="Layer_1" data-name="Layer 1"><path class="cls-1" d="M21,40.61a2.26,2.26,0,0,0,.51-1.48,2.43,2.43,0,0,0-.79-1.85,3,3,0,0,0-2.17-.77H15.05v8.38h2V41.66h1l1.69,3.23H22l-2-3.56a2.4,2.4,0,0,0,1-.72m-1.76-.81a1.17,1.17,0,0,1-.79.26H17V38.21h1.45a1.13,1.13,0,0,1,.79.26.91.91,0,0,1,0,1.33"/><path class="cls-1" d="M12,41.92a1.28,1.28,0,0,1-.37,1,1.34,1.34,0,0,1-1,.36,1.36,1.36,0,0,1-1-.36,1.31,1.31,0,0,1-.35-1V36.51h-2V42a2.76,2.76,0,0,0,1,2.17,3.54,3.54,0,0,0,2.37.82A3.56,3.56,0,0,0,13,44.14,2.76,2.76,0,0,0,14,42V36.51H12Z"/><polygon class="cls-1" points="0 38.21 2.26 38.21 2.26 44.89 4.24 44.89 4.24 38.21 6.51 38.21 6.51 36.51 0 36.51 0 38.21"/><polygon class="cls-1" points="29.93 36.51 27.48 36.51 24.64 39.79 24.64 36.51 22.66 36.51 22.66 44.89 24.64 44.89 24.64 42.37 25.59 41.31 27.76 44.89 30.07 44.89 26.91 39.89 29.93 36.51"/><polygon class="cls-1" points="53 43.19 53 36.51 51.02 36.51 51.02 44.89 56.73 44.89 56.73 43.19 53 43.19"/><polygon class="cls-1" points="46.72 36.51 44.74 36.51 44.74 44.89 50.27 44.89 50.27 43.19 46.72 43.19 46.72 36.51"/><path class="cls-1" d="M33.49,38.11a1.26,1.26,0,0,1,1.34,1l0,.11h2l0-.17a3.1,3.1,0,0,0-1.14-2,3.57,3.57,0,0,0-2.22-.7,3.87,3.87,0,0,0-1,.12,3.52,3.52,0,0,0-2.64,2.6,5.34,5.34,0,0,0-.2,1.54,6.34,6.34,0,0,0,.16,1.41,4.09,4.09,0,0,0,1,1.79l.2.2a3.77,3.77,0,0,0,4.65.26,3.11,3.11,0,0,0,1.17-2l0-.17h-2l0,.11a1.26,1.26,0,0,1-1.34,1,1.56,1.56,0,0,1-1.17-.4,2.18,2.18,0,0,1-.45-.64,4.11,4.11,0,0,1-.25-1.61,2.79,2.79,0,0,1,.7-2.13,1.61,1.61,0,0,1,1.17-.4"/><polygon class="cls-1" points="37.68 44.89 43.67 44.89 43.67 43.19 39.66 43.19 39.66 41.52 43.08 41.52 43.08 39.82 39.66 39.82 39.66 38.21 43.67 38.21 43.67 36.51 37.68 36.51 37.68 44.89"/><path class="cls-2" d="M40.72,7A14.48,14.48,0,0,0,31.48.4,14.81,14.81,0,0,0,17.56,4.46a14.71,14.71,0,0,0-3.46,5.61.14.14,0,0,0,0,.06,1.42,1.42,0,0,0-.07.22c-.73,2.41,0,3.75,1,2.63l.13-.14,0-.06a16.22,16.22,0,0,1,3.22-2.87h0a18.14,18.14,0,0,1,1.58-1A12.13,12.13,0,0,1,21.88,8a1.41,1.41,0,0,0,.71-1V6.89a3.25,3.25,0,0,1,4.56-2.28h0A3.24,3.24,0,0,1,29,7.07a3.29,3.29,0,0,1-.54,2.34.44.44,0,0,1-.08.11l0,0h0a3.27,3.27,0,0,1-1.49,1.06,3.34,3.34,0,0,1-1.09.21h0a2,2,0,0,1-.72-.06,2.47,2.47,0,0,1-.75-.27A3.85,3.85,0,0,1,23.5,10a.64.64,0,0,0-.28-.15,1,1,0,0,0-.51.06h0l-.16.09a17.83,17.83,0,0,0-1.35,1.25,24.38,24.38,0,0,0-2.51,3.18c-.23.38-.46.76-.67,1.15s-.37.74-.54,1.11a20.27,20.27,0,0,0-.73,1.92l0,.09a.65.65,0,0,0,0,.13.5.5,0,0,0,0,.13c-1.36,4.66,1.09,7.36,3.14,4.54l.35-.53h0c2.15-3.73,6.57-6.42,6.57-6.42h0l.82-.5h0l0,0a22,22,0,0,1,2.33-1.16A14,14,0,0,1,32,14.1,1.41,1.41,0,0,0,33,13h0a3.09,3.09,0,0,1,1.67-2.11,3.19,3.19,0,0,1,.78-.29,3.49,3.49,0,0,1,.85-.07h0a1.56,1.56,0,0,1,.46.06A3.25,3.25,0,0,1,36.53,17a3.14,3.14,0,0,1-2.35-.59,1.89,1.89,0,0,0-1.55,0,18.08,18.08,0,0,0-1.91,1.21,21.21,21.21,0,0,0-2.39,2.08,18,18,0,0,0-2.07,2.58,1.3,1.3,0,0,0-.1.15l0,0a19.68,19.68,0,0,0-1.81,3.78,2.06,2.06,0,0,0-.12.35c-.58,2,.67,2.74,2.12,3a11.67,11.67,0,0,0,2.78.1l.26,0c.41-.05.82-.09,1.23-.16A14.78,14.78,0,0,0,38.06,26a14.53,14.53,0,0,0,4.8-9A14.35,14.35,0,0,0,40.72,7"/></g></g></svg>