<svg xmlns="http://www.w3.org/2000/svg" viewBox="0 0 159.48 159.48"><defs><style>.cls-1{fill:#231f20;}.cls-1,.cls-2,.cls-3,.cls-4{fill-rule:evenodd;}.cls-2{fill:#fff200;}.cls-3{fill:#ed1c24;}.cls-4{fill:#00a651;}</style></defs><title>Varlık 1</title><g id="katman_2" data-name="katman 2"><g id="Layer_1" data-name="Layer 1"><path class="cls-1" d="M79.74,159.48A79.74,79.74,0,1,0,0,79.74a79.92,79.92,0,0,0,79.74,79.74Z"/><path class="cls-2" d="M79.74,3.38A76.36,76.36,0,1,1,3.38,79.74,76.5,76.5,0,0,1,79.74,3.38Z"/><path class="cls-1" d="M80.83,17.17a301.79,301.79,0,0,1,46.84,4.53l.68-.77,1,.87-.71.85a55.2,55.2,0,0,1,1.74,19,78.06,78.06,0,0,1-3.78,17.87c4.13-.55,8.21-1.24,12.29-2,4.34-.83,8.64-1.85,12.84-3.06.15.42.3.85.44,1.28-4.31,1.26-8.62,2.29-13,3.12-4.13.85-8.36,1.5-12.59,2.09,3.93,11.75,3.13,23.35,1.89,35a135.75,135.75,0,0,1,16.72,4.63c2.44.8,4.83,1.6,7.22,2.29l-.4,1.3c-2.39-.7-4.83-1.5-7.27-2.29a134.21,134.21,0,0,0-16.17-4.53,153.77,153.77,0,0,1,1.19,17,89.06,89.06,0,0,1-1.39,17.47l2.49,2.49,1.1,1.06c-.33.32-.66.63-1,.93l-1.05-1c-.85-.8-1.69-1.65-2.54-2.49a299.92,299.92,0,0,1-46.54,4.58V136A301.08,301.08,0,0,0,127,131.4a88.09,88.09,0,0,0,1.4-17.07,155.13,155.13,0,0,0-1.25-17.27c-.5-.1-1-.15-1.54-.25a397.37,397.37,0,0,1-44.8,2.09V97.56h0a407.64,407.64,0,0,0,44.7-2.09h.2c.45,0,.89.15,1.34.2,1.25-11.6,2-23.15-2-34.65a307.58,307.58,0,0,0-44.3-3v-1.4a316.13,316.13,0,0,1,44.35,3A79.29,79.29,0,0,0,129,41.56a53.38,53.38,0,0,0-1.64-18.51,304,304,0,0,0-46.54-4.48v-1.4ZM29.72,137.35l-1-.91c.74-.72,1.46-1.43,2.22-2.15l2.49-2.49A85.39,85.39,0,0,1,32,114.33a161.15,161.15,0,0,1,1.15-16.87c-3.73.94-7.57,2.14-11.3,3.28a113.61,113.61,0,0,1-14.27,3.94c-.15-.43-.29-.87-.44-1.3a127.62,127.62,0,0,0,14.31-3.93c3.93-1.2,7.87-2.49,11.85-3.39-1.25-11.69-2-23.34,1.89-35.09-.95-.15-1.89-.25-2.89-.39-8.54-1.1-17.14-2.24-25.19-4.37.14-.45.29-.88.44-1.32C15.48,57,24,58.14,32.5,59.23c.9.1,1.74.25,2.64.35a78.47,78.47,0,0,1-3.78-17.92,55.2,55.2,0,0,1,1.74-19l-1.66-2c.34-.28.68-.56,1-.83l1.68,1.9A201.36,201.36,0,0,1,80,17.17h.79v1.4H80A198.48,198.48,0,0,0,34.39,23.1a53.1,53.1,0,0,0-1.64,18.46,79.83,79.83,0,0,0,3.83,18.07,358.94,358.94,0,0,1,44.25-3h0V58h0a339,339,0,0,0-44.2,3c-4,11.55-3.23,23.1-2,34.7.45-.1.9-.15,1.35-.25l.1,0,.1,0c14.93,1.24,29.81,2,44.64,2.09V98.9h0C66,98.85,51,98.05,36.14,96.81c-.5.1-1,.2-1.55.35a155.74,155.74,0,0,0-1.24,17.17,89.92,89.92,0,0,0,1.39,17.17A196.27,196.27,0,0,0,80,136h.79v1.35H80a195.1,195.1,0,0,1-45.7-4.53c-.84.84-1.64,1.64-2.48,2.44l-2.14,2.11Z"/><path class="cls-3" d="M61.42,15.63C42.21,28.27,28.52,45.05,25.14,77.35h-8V88H26c5.58,23.15,20,45.29,43.21,55.8,2.09-3.39,4.18-6.77,6.22-10.21-24-15.18-34.65-30.41-36.29-45.59H67.24V75H38.08c2.14-20,13.54-36.19,30.71-49l-7.37-10.3Z"/><path class="cls-1" d="M108.86,13.94,82.87,46C72.17,62,76.6,81.23,97.56,83.47c17,1.64,31.6,2,21.45,14.83-12.15,12.55-21.45,21.36-33.6,33.9,2.94,3.29,5.83,6.62,8.76,9.9l34.69-35.88c11.55-13.54,12-26.58-7.16-32.11-11-3.48-29.07-2.34-30.91-9.6C89.24,61,92.38,54.45,99,47.09c6.62-8.17,13.24-16.28,19.81-24.44-3.28-2.94-6.57-5.83-9.9-8.71Z"/><path class="cls-1" d="M83.47,112.19V110.9h0a.81.81,0,0,0,.65-.3,1.22,1.22,0,0,0,.3-.9,1.33,1.33,0,0,0-.3-.94,1,1,0,0,0-.7-.35h0v-1.2a2.06,2.06,0,0,1,.6,0,2.24,2.24,0,0,1,1.64.7,2.41,2.41,0,0,1,.65,1.79,2.4,2.4,0,0,1-1.25,2.24,3.65,3.65,0,0,1-1.54.3Zm0-6.32v-1.3h0a3.42,3.42,0,0,1,1.39.25,1.68,1.68,0,0,1,.85.55,2.36,2.36,0,0,1,.5,1l-2,.25a.85.85,0,0,0-.3-.6.61.61,0,0,0-.45-.15ZM88,104.72h4.83v1.65H89.54l-.15,1.09a3.47,3.47,0,0,1,.65-.25,2.93,2.93,0,0,1,.65-.1,2.44,2.44,0,0,1,1.79.7,2.26,2.26,0,0,1,.7,1.64,2.77,2.77,0,0,1-.35,1.4,3.26,3.26,0,0,1-1,1,4,4,0,0,1-1.69.35A4.63,4.63,0,0,1,88.9,112a4.43,4.43,0,0,1-.85-.4,2.57,2.57,0,0,1-.6-.64,2.69,2.69,0,0,1-.4-.85l2.1-.2a1.3,1.3,0,0,0,.34.75,1.05,1.05,0,0,0,.65.25.81.81,0,0,0,.7-.35,1.27,1.27,0,0,0,.3-.95,1.25,1.25,0,0,0-.3-.94,1.09,1.09,0,0,0-1.3-.15.87.87,0,0,0-.44.35l-1.75-.25.65-3.94Zm-4.53-.15v1.3a.75.75,0,0,0-.75.5,3.66,3.66,0,0,0-.29,1.54,1.84,1.84,0,0,1,.74-.55l.3-.15v1.2a.81.81,0,0,0-.7.35,1.19,1.19,0,0,0-.29.89,1.22,1.22,0,0,0,.29.9.81.81,0,0,0,.7.35v1.29a4,4,0,0,1-1.69-.4,2.75,2.75,0,0,1-1-1.19,5.24,5.24,0,0,1-.39-2.19,4.24,4.24,0,0,1,.84-2.89,3.18,3.18,0,0,1,2.29-1Zm-7.07,7.62V111a.82.82,0,0,0,.75-.5,4.11,4.11,0,0,0,.3-1.54,3.9,3.9,0,0,1-.75.54c-.1,0-.2,0-.3.1v-1.19a.91.91,0,0,0,.7-.3,1.44,1.44,0,0,0,.3-1,1.3,1.3,0,0,0-.3-.89.87.87,0,0,0-.7-.35v-1.3a3.77,3.77,0,0,1,1.65.4,2.92,2.92,0,0,1,1.09,1.2,5.35,5.35,0,0,1,.4,2.19,4.21,4.21,0,0,1-.85,2.88,2.93,2.93,0,0,1-2.29,1Zm-5.07-7.62V112h-2v-4.88a5.3,5.3,0,0,1-1,.6,5.06,5.06,0,0,1-1.14.5v-1.69a5.31,5.31,0,0,0,1.59-.8,3,3,0,0,0,.89-1.2Zm5.07,0v1.3h-.05a.79.79,0,0,0-.64.3,1.21,1.21,0,0,0-.3.89,1.27,1.27,0,0,0,.3,1,.79.79,0,0,0,.69.35h0v1.19a2,2,0,0,1-.59,0,2.11,2.11,0,0,1-1.65-.69,2.45,2.45,0,0,1-.69-1.75,3.13,3.13,0,0,1,.34-1.34,2.34,2.34,0,0,1,1-.9,3.71,3.71,0,0,1,1.54-.35Zm0,6.38v1.24h-.05A4.8,4.8,0,0,1,75,112a2.17,2.17,0,0,1-.85-.6,2,2,0,0,1-.49-1l2-.25a.85.85,0,0,0,.3.6.59.59,0,0,0,.44.2Z"/><polygon class="cls-3" points="75.56 124.19 76.3 126.43 78.59 126.43 76.7 127.77 77.45 130.01 75.56 128.62 73.67 130.01 74.41 127.77 72.52 126.43 74.86 126.43 75.56 124.19 75.56 124.19"/><polygon class="cls-1" points="84.47 124.19 85.21 126.43 87.55 126.43 85.66 127.77 86.36 130.01 84.47 128.62 82.63 130.01 83.32 127.77 81.43 126.43 83.77 126.43 84.47 124.19 84.47 124.19"/><polygon class="cls-4" points="80.39 123.84 81.13 121.6 83.42 121.6 81.58 120.25 82.28 118.01 80.39 119.41 78.54 118.01 79.29 120.25 77.4 121.6 79.74 121.6 80.39 123.84 80.39 123.84"/></g></g></svg>