<svg xmlns="http://www.w3.org/2000/svg" xmlns:xlink="http://www.w3.org/1999/xlink" viewBox="0 0 200 80"><defs><style>.cls-1,.cls-7{fill:none;}.cls-1{clip-rule:evenodd;}.cls-2{fill-rule:evenodd;}.cls-3{clip-path:url(#clip-path);}.cls-4{fill:url(#linear-gradient);}.cls-5{clip-path:url(#clip-path-2);}.cls-6{fill:url(#linear-gradient-2);}</style><clipPath id="clip-path"><polygon class="cls-1" points="12.83 30.9 26 30.9 31.41 43 22.99 55.1 14.58 67.21 9.82 55.1 18.23 43 12.83 30.9"/></clipPath><linearGradient id="linear-gradient" x1="9.6" y1="51.7" x2="31.62" y2="46.4" gradientUnits="userSpaceOnUse"><stop offset="0" stop-color="#259be9"/><stop offset="1" stop-color="#04ecf9"/></linearGradient><clipPath id="clip-path-2"><polygon class="cls-1" points="27.06 30.9 27.07 30.9 34.86 18.79 40.25 30.9 45.64 43 37.23 55.1 24.05 55.1 32.47 43 27.06 30.9"/></clipPath><linearGradient id="linear-gradient-2" x1="29.22" y1="39.21" x2="41.86" y2="34.13" gradientUnits="userSpaceOnUse"><stop offset="0" stop-color="#3945cc"/><stop offset="1" stop-color="#1ca1e6"/></linearGradient></defs><title>Varlık 1</title><g id="katman_2" data-name="katman 2"><g id="Layer_1" data-name="Layer 1"><path class="cls-2" d="M73.68,39.57a5.07,5.07,0,0,1-1.39,3.48,4.36,4.36,0,0,1-3.35,1.45,4.08,4.08,0,0,1-3-1.15,3.9,3.9,0,0,1-1.15-3,5.11,5.11,0,0,1,1.33-3.51,4.33,4.33,0,0,1,3.4-1.5,3.92,3.92,0,0,1,3,1.21,4.12,4.12,0,0,1,1.13,3M88.4,44.5a3.91,3.91,0,0,1-3-1.2,4.15,4.15,0,0,1-1.1-3,5.13,5.13,0,0,1,1.38-3.51,4.35,4.35,0,0,1,3.35-1.46A4.07,4.07,0,0,1,92,36.42a3.9,3.9,0,0,1,1.14,3A5.22,5.22,0,0,1,91.82,43,4.29,4.29,0,0,1,88.4,44.5Zm6.11-13-.34,1.94q-1.73-2.36-5.46-2.35a9,9,0,0,0-4,.9,7.82,7.82,0,0,0-2.89,2.33,11.2,11.2,0,0,0-1.64,3.09,10.11,10.11,0,0,0-.57,3.31,8.18,8.18,0,0,0,2.06,5.61,7.35,7.35,0,0,0,10.58.16l-.31,1.76h4.35l2.94-16.75Zm17.4,0-1.62,9.22a3.37,3.37,0,0,1-1.23,2.19,3.62,3.62,0,0,1-2.33.78,3,3,0,0,1-2.07-.72,2.51,2.51,0,0,1-.8-1.94,4.79,4.79,0,0,1,.11-1l1.52-8.57h-4.63l-1.55,8.67A10.83,10.83,0,0,0,99.13,42a5.52,5.52,0,0,0,1.63,4.09A5.78,5.78,0,0,0,105,47.72a7.17,7.17,0,0,0,4.32-1.42l-.21,1a3.66,3.66,0,0,1-4,3.39q-2.62,0-5.28-2.73L97,51a9.69,9.69,0,0,0,3.62,2.87,10.68,10.68,0,0,0,4.46,1A8.56,8.56,0,0,0,110.77,53a8.81,8.81,0,0,0,3-5.51l2.8-15.92Zm25,8.05a4.88,4.88,0,0,1-1.37,3.48,4.39,4.39,0,0,1-3.33,1.45,3.93,3.93,0,0,1-4.11-4.21,5.15,5.15,0,0,1,1.33-3.49,4.32,4.32,0,0,1,3.4-1.51,3.91,3.91,0,0,1,3,1.2A4.21,4.21,0,0,1,136.92,39.57Zm-2.66-8.46a6.76,6.76,0,0,0-4.84,1.83l1.87-10.57h-4.66l-2.69,15.37,2.22,2-2.93,2.05-1.13,6.43h4.63l.38-2.11q1.65,2.52,5.46,2.52a8.53,8.53,0,0,0,5.09-1.55,9.19,9.19,0,0,0,3.11-3.68,10.62,10.62,0,0,0,.95-4.37,8.19,8.19,0,0,0-2.08-5.64A6.83,6.83,0,0,0,134.26,31.11Zm18.47.2a5.89,5.89,0,0,0-4.45,1.9l.27-1.69h-4.28l-2.93,16.75H146l1.48-8.53c.49-2.76,2.05-4.14,4.7-4.14a13.78,13.78,0,0,1,1.83.13l.72-4A5.47,5.47,0,0,0,152.73,31.31Zm10.87,4a4.11,4.11,0,0,1,4.21,4.35,4.75,4.75,0,0,1-1.41,3.42A4.61,4.61,0,0,1,163,44.47a4,4,0,0,1-3-1.19,4.09,4.09,0,0,1-1.14-3.06,5.1,5.1,0,0,1,1.38-3.47A4.4,4.4,0,0,1,163.6,35.32Zm.21-4.21A9.67,9.67,0,0,0,157,33.78a8.59,8.59,0,0,0-2.86,6.51,8.05,8.05,0,0,0,2.48,6,8.57,8.57,0,0,0,6.22,2.41A9.78,9.78,0,0,0,169.68,46a8.47,8.47,0,0,0,2.9-6.49,8,8,0,0,0-2.52-6A8.69,8.69,0,0,0,163.81,31.11Zm17,0a7,7,0,0,0-4.44,1.38,4.54,4.54,0,0,0-1.74,3.76,4.21,4.21,0,0,0,1,3,9.36,9.36,0,0,0,3.13,2.09l1.62.66a5.41,5.41,0,0,1,1.23.74,1.1,1.1,0,0,1,.36.85,1.12,1.12,0,0,1-.64,1,3.17,3.17,0,0,1-1.57.36,4.27,4.27,0,0,1-2.37-.67,9.79,9.79,0,0,1-2.08-2l-2.91,2.56a8,8,0,0,0,3,2.8,8.91,8.91,0,0,0,4.35,1A6.92,6.92,0,0,0,184.72,47a5.16,5.16,0,0,0,1.77-3.92,3.9,3.9,0,0,0-1.08-2.81,10.55,10.55,0,0,0-3.3-2.09l-1.52-.66a5.42,5.42,0,0,1-1.14-.72,1,1,0,0,1-.35-.76c0-.81.58-1.21,1.73-1.21a4.75,4.75,0,0,1,3.63,1.8l2.72-2.59A7.43,7.43,0,0,0,180.83,31.11Zm-62.3,5.07,3.91,3.61-5.2,3.62Zm70,9.06a1.24,1.24,0,1,1-1.23,1.24A1.23,1.23,0,0,1,188.51,45.24Zm-.22.81h.22a.2.2,0,0,1,.15.06.19.19,0,0,1,.05.13.22.22,0,0,1-.05.14.25.25,0,0,1-.15,0h-.22Zm.84,1.08-.37-.52a.33.33,0,0,0,.16-.15.32.32,0,0,0,.07-.22.4.4,0,0,0-.14-.31.51.51,0,0,0-.34-.11H188v1.31h.27v-.46h.19l.35.46Zm-.62-2.33a1.68,1.68,0,1,1-1.67,1.68A1.67,1.67,0,0,1,188.51,44.8ZM71,31.11a6.7,6.7,0,0,0-5.32,2.31l.35-1.9H61.73l-4,23h4.66l1.42-8.25c1.17,1.64,3,2.45,5.52,2.45a9.05,9.05,0,0,0,4-.89,8,8,0,0,0,2.9-2.34,10.91,10.91,0,0,0,1.66-3.07,10,10,0,0,0,.57-3.3,8.18,8.18,0,0,0-2.07-5.64A6.85,6.85,0,0,0,71,31.11Z"/><g class="cls-3"><rect class="cls-4" x="9.82" y="30.9" width="21.59" height="36.31"/></g><g class="cls-5"><rect class="cls-6" x="24.05" y="18.79" width="21.59" height="36.31"/></g><rect class="cls-7" width="200" height="80"/></g></g></svg>