<svg xmlns="http://www.w3.org/2000/svg" viewBox="0 0 124.62 28.84"><defs><style>.cls-1{fill:#ffcb00;}.cls-2{fill:#e30520;fill-rule:evenodd;}.cls-3{fill:#df2814;}.cls-4{fill:#24b7c7;}.cls-5{fill:#137fc3;}.cls-6{fill:#1e2a50;}.cls-7{fill:#d6d900;}</style></defs><title>Varlık 1</title><g id="katman_2" data-name="katman 2"><g id="Layer_1" data-name="Layer 1"><path class="cls-1" d="M25.86,7a14.36,14.36,0,0,0-3.78-4A14.56,14.56,0,0,0,17,.74a13.84,13.84,0,0,0-9,.91,13.69,13.69,0,0,0-4.27,3A14.25,14.25,0,0,0,.37,10v.06a1.72,1.72,0,0,0-.07.21c-.69,2.31,0,3.59,1,2.52l.12-.14.05-.05A15.45,15.45,0,0,1,4.51,9.85h0C5,9.52,5.5,9.2,6,8.91A12.49,12.49,0,0,1,7.82,8,1.34,1.34,0,0,0,8.5,7V7a3,3,0,0,1,2.67-2.45,3,3,0,0,1,1.7.27h0a3.12,3.12,0,0,1,1.76,2.35,3.18,3.18,0,0,1-.52,2.24l-.07.11,0,0h0a3,3,0,0,1-1.42,1,3.3,3.3,0,0,1-1,.2h0a1.8,1.8,0,0,1-.68-.06,2.28,2.28,0,0,1-.72-.26A3.65,3.65,0,0,1,9.37,10,.56.56,0,0,0,9.1,9.8a.88.88,0,0,0-.48.06h0L8.46,10c-.45.38-.88.77-1.29,1.19a22.78,22.78,0,0,0-2.4,3c-.23.35-.44.72-.64,1.1s-.36.7-.52,1.06a19.41,19.41,0,0,0-.7,1.83l0,.09a.65.65,0,0,1,0,.13l0,.12c-1.31,4.46,1,7,3,4.35q.15-.26.33-.51h0a20.79,20.79,0,0,1,6.29-6.15h0c.26-.16.52-.32.79-.47h0l0,0a19.29,19.29,0,0,1,2.23-1.11,12.48,12.48,0,0,1,2-.74,1.33,1.33,0,0,0,.89-1h0a3,3,0,0,1,1.61-2,3.47,3.47,0,0,1,.74-.27,3.25,3.25,0,0,1,.81-.07h0a1.42,1.42,0,0,1,.44.06,3.11,3.11,0,0,1-.17,6.14,3,3,0,0,1-2.25-.57,1.88,1.88,0,0,0-1.49,0,16.48,16.48,0,0,0-1.82,1.16,19.27,19.27,0,0,0-2.29,2,17.22,17.22,0,0,0-2,2.47l-.09.14,0,0a18.58,18.58,0,0,0-1.74,3.62c0,.11-.07.22-.11.34-.56,1.87.65,2.62,2,2.89a11.25,11.25,0,0,0,2.65.1l.25,0c.39-.05.79-.09,1.18-.15a14.15,14.15,0,0,0,7.15-3.43,13.87,13.87,0,0,0,4.6-8.61A13.85,13.85,0,0,0,25.86,7"/><path class="cls-2" d="M64.85,1.1a5.8,5.8,0,0,0-4.53,5.67c0,.06,0,.12,0,.18,4.09.88,6.16,3.65,6.16,7.32a7.46,7.46,0,0,1-7.44,7.46c-4.08,0-7.89-3.44-7.89-8.53C51.16,7,56.45,1.16,64,1h.57a15,15,0,0,0-5.34-1A14.46,14.46,0,0,0,44.57,14.27a14.64,14.64,0,0,0,29.27,0,14.27,14.27,0,0,0-9-13.17Z"/><polygon class="cls-3" points="124.62 3.36 119.22 0.24 119.22 6.48 124.62 3.36"/><polygon class="cls-4" points="103.02 28.3 103.02 18.95 108.42 22.07 108.42 9.6 103.02 12.71 103.02 9.6 103.02 3.36 124.62 15.83 103.02 28.3"/><polygon class="cls-5" points="108.42 9.6 103.02 12.71 103.02 18.95 108.42 22.07 108.42 9.6"/><polygon class="cls-6" points="97.62 15.83 103.02 18.95 103.02 12.71 97.62 15.83"/><polygon class="cls-7" points="103.02 9.6 97.23 6.48 91.45 3.36 91.45 6.49 91.45 9.6 91.45 9.61 91.45 12.71 91.45 15.85 97.23 12.73 97.41 12.72 97.52 12.71 103.02 9.6"/></g></g></svg>