<svg xmlns="http://www.w3.org/2000/svg" viewBox="0 0 78.83 45.12"><defs><style>.cls-1{fill:#1e2a50;}.cls-2{fill:#df2814;}.cls-3{fill:#24b7c7;}.cls-4{fill:#137fc3;}.cls-5{fill:#d6d900;}</style></defs><title>Varlık 1</title><g id="katman_2" data-name="katman 2"><g id="Layer_1" data-name="Layer 1"><path class="cls-1" d="M40,40.76a1.31,1.31,0,0,0-1.34-1.43A1.62,1.62,0,0,0,37,40.76ZM38.6,38a3,3,0,0,1,3.09,3.28,5.66,5.66,0,0,1,0,.67H37a1.74,1.74,0,0,0,1.92,1.52,4.65,4.65,0,0,0,1.9-.42l.58,1.24a5.6,5.6,0,0,1-2.51.58,3.36,3.36,0,0,1-3.69-3.41A3.29,3.29,0,0,1,38.6,38m6.12-2.44V42.9c0,.36.22.53.6.53a3.35,3.35,0,0,0,.4,0v1.31a7,7,0,0,1-1.17.13c-.8,0-1.55-.31-1.55-1.81V36.47Zm6.64,5.25A1.31,1.31,0,0,0,50,39.33a1.62,1.62,0,0,0-1.75,1.43ZM49.92,38A3,3,0,0,1,53,41.23a5.66,5.66,0,0,1,0,.67H48.29a1.74,1.74,0,0,0,1.92,1.52,4.68,4.68,0,0,0,1.9-.42l.58,1.24a5.6,5.6,0,0,1-2.51.58,3.35,3.35,0,0,1-3.69-3.41A3.29,3.29,0,0,1,49.92,38M21.34,35.5V41l2.21-2.92h2L23,41.18l2.51,3.51H23.56L22,42.39l-.63.71v1.59H19.63V36.47ZM56,35.5V41l2.21-2.92h2l-2.62,3.11,2.5,3.51H58.19l-1.58-2.3L56,43.1v1.59H54.26V36.47ZM70.4,38.07l.28.88a2.13,2.13,0,0,1,1.83-1,2,2,0,0,1,1.82,1.18A2.27,2.27,0,0,1,76.47,38c1.36,0,2.36.84,2.36,2.76v4H77.11v-4.1c0-.67-.26-1.26-1.06-1.26s-1.22.68-1.22,1.54v3.82H73.11V40.5a1,1,0,0,0-1.06-1.17c-.85,0-1.23.68-1.23,1.53v3.83H69.1V38.07Zm-6.28-.45a3.75,3.75,0,1,0,3.76,3.75A3.75,3.75,0,0,0,64.12,37.62Zm0,5.88a2.13,2.13,0,1,1,2.14-2.13A2.13,2.13,0,0,1,64.12,43.5ZM35.94,35.78v1.49H33.7v7.42H31.92V37.27H29.67V35.78ZM16.1,38.07v1c.4-.84,1-1,2.2-1v1.68h-.22a1.75,1.75,0,0,0-1.92,2v3H14.45V38.07ZM6.27,35.78v1.49H4v7.42H2.24V37.27H0V35.78Zm5,8.9-.26-.8a1.88,1.88,0,0,1-1.76.92,2.29,2.29,0,0,1-2.42-2.52V38.93H8.51V42.3c0,.85.46,1.23,1.07,1.23a1.3,1.3,0,0,0,1.27-1.45V38.93h1.69v5.75ZM7.41,36.57H9.13v1.35H7.41Zm2.79,0h1.72v1.35H10.2Z"/><polygon class="cls-2" points="56.54 3.26 50.9 0 50.9 6.51 56.54 3.26"/><polygon class="cls-3" points="33.98 29.31 33.98 19.54 39.62 22.8 39.62 9.77 33.98 13.03 33.98 9.77 33.98 3.26 56.54 16.29 33.98 29.31"/><polygon class="cls-4" points="39.62 9.77 33.98 13.03 33.98 19.54 39.62 22.8 39.62 9.77"/><polygon class="cls-1" points="28.34 16.29 33.98 19.54 33.98 13.03 28.34 16.29"/><polygon class="cls-5" points="33.98 9.77 28.17 6.51 22.37 3.26 22.37 6.53 22.37 9.77 22.37 9.79 22.37 13.03 22.37 16.3 28.17 13.04 28.24 13.04 28.29 13.03 33.98 9.77"/></g></g></svg>