<svg xmlns="http://www.w3.org/2000/svg" viewBox="0 0 89.03 66.66"><defs><style>.cls-1{fill:#fff;}</style></defs><title>Varlık 1</title><g id="katman_2" data-name="katman 2"><g id="Layer_1" data-name="Layer 1"><path class="cls-1" d="M17.13,40a.62.62,0,0,0,.62-.49,5.8,5.8,0,0,0,.14-1.43,5.55,5.55,0,0,0-.14-1.44.61.61,0,0,0-.62-.48.62.62,0,0,0-.63.48,5.06,5.06,0,0,0-.15,1.44,5.28,5.28,0,0,0,.15,1.43.62.62,0,0,0,.63.49Z"/><path class="cls-1" d="M38.33,40a.61.61,0,0,0,.62-.49,5.28,5.28,0,0,0,.15-1.43A5.06,5.06,0,0,0,39,36.66a.6.6,0,0,0-.62-.48.64.64,0,0,0-.63.48,5.14,5.14,0,0,0-.14,1.44,5.34,5.34,0,0,0,.14,1.43.64.64,0,0,0,.63.49Z"/><path class="cls-1" d="M12.88,36.18a.62.62,0,0,0-.62.48,5.06,5.06,0,0,0-.15,1.44,5.28,5.28,0,0,0,.15,1.43.62.62,0,0,0,.62.49.61.61,0,0,0,.62-.49,5.28,5.28,0,0,0,.15-1.43,5.06,5.06,0,0,0-.15-1.44.61.61,0,0,0-.62-.48Z"/><path class="cls-1" d="M8.64,40a.61.61,0,0,0,.62-.49A5.34,5.34,0,0,0,9.4,38.1a5.14,5.14,0,0,0-.14-1.44.6.6,0,0,0-.62-.48.62.62,0,0,0-.62.48,4.66,4.66,0,0,0-.16,1.44A4.85,4.85,0,0,0,8,39.53a.62.62,0,0,0,.62.49Z"/><path class="cls-1" d="M21.37,40a.62.62,0,0,0,.62-.49,5.8,5.8,0,0,0,.14-1.43A5.55,5.55,0,0,0,22,36.66a.61.61,0,0,0-.62-.48.62.62,0,0,0-.63.48,5.06,5.06,0,0,0-.15,1.44,5.28,5.28,0,0,0,.15,1.43.62.62,0,0,0,.63.49Z"/><path class="cls-1" d="M29.85,36.18a.62.62,0,0,0-.63.48,5.06,5.06,0,0,0-.15,1.44,5.28,5.28,0,0,0,.15,1.43.64.64,0,0,0,1.25,0,5.34,5.34,0,0,0,.14-1.43,5.14,5.14,0,0,0-.14-1.44.62.62,0,0,0-.62-.48Z"/><path class="cls-1" d="M42.58,36.18a.62.62,0,0,0-.63.48,5,5,0,0,0-.16,1.44A5.21,5.21,0,0,0,42,39.53a.64.64,0,0,0,1.25,0,5.8,5.8,0,0,0,.14-1.43,5.55,5.55,0,0,0-.14-1.44.62.62,0,0,0-.62-.48Z"/><path class="cls-1" d="M34.09,36.18a.62.62,0,0,0-.62.48,5,5,0,0,0-.16,1.44,5.21,5.21,0,0,0,.16,1.43.62.62,0,0,0,.62.49.6.6,0,0,0,.62-.49,5.28,5.28,0,0,0,.15-1.43,5.06,5.06,0,0,0-.15-1.44.6.6,0,0,0-.62-.48Z"/><path class="cls-1" d="M5.94,56.92H47.55l.07-.1,1.51-1.49,1.58-1.59,3.82-3.82L47.62,43a3.19,3.19,0,0,1,0-4.5l7.58-7.58a3.19,3.19,0,0,1,4.5,0l6.91,6.91,6.91-6.91a3.17,3.17,0,0,1,4.49,0l7.59,7.58a3.65,3.65,0,0,1,.26.32,3.18,3.18,0,0,1,0,3.86,3.65,3.65,0,0,1-.26.32l-6.92,6.91,3.83,3.82L84,55.23l1.26,1.26A6,6,0,0,0,89,50.9V6a6,6,0,0,0-5.94-6H5.94A6,6,0,0,0,0,6V50.9a6,6,0,0,0,5.94,6ZM44,40.16a1.5,1.5,0,0,1-1.44.72,1.52,1.52,0,0,1-1.45-.72,4.14,4.14,0,0,1-.42-2.06A4.17,4.17,0,0,1,41.13,36,1.8,1.8,0,0,1,44,36a4.17,4.17,0,0,1,.42,2.06A4.14,4.14,0,0,1,44,40.16Zm-9.93.72a1.49,1.49,0,0,1-1.44-.72,4.14,4.14,0,0,1-.42-2.06A4.17,4.17,0,0,1,32.65,36a1.5,1.5,0,0,1,1.44-.73,1.52,1.52,0,0,1,1.45.73A4.29,4.29,0,0,1,36,38.1a4.15,4.15,0,0,1-.41,2.06,1.52,1.52,0,0,1-1.45.72Zm2.38-2.78A4.17,4.17,0,0,1,36.89,36a1.8,1.8,0,0,1,2.89,0,4.18,4.18,0,0,1,.41,2.06,4.15,4.15,0,0,1-.41,2.06,1.81,1.81,0,0,1-2.89,0,4.14,4.14,0,0,1-.42-2.06Zm-5.18,2.06a1.51,1.51,0,0,1-1.44.72,1.52,1.52,0,0,1-1.45-.72A4.26,4.26,0,0,1,28,38.1,4.18,4.18,0,0,1,28.4,36a1.8,1.8,0,0,1,2.89,0,4.06,4.06,0,0,1,.42,2.06,4,4,0,0,1-.42,2.06Zm-17,0a1.52,1.52,0,0,1-1.45.72,1.51,1.51,0,0,1-1.44-.72A4.14,4.14,0,0,1,11,38.1,4.17,4.17,0,0,1,11.44,36a1.5,1.5,0,0,1,1.44-.73,1.52,1.52,0,0,1,1.45.73,4.29,4.29,0,0,1,.41,2.06,4.26,4.26,0,0,1-.41,2.06ZM9.39,22.74V19.58h3.19v3.23H9.4s0,0,0-.07Zm12.47,0s0,.05,0,.07H18.66V19.58h3.2Zm-3.2,1.74H21.5A4.49,4.49,0,0,1,18.66,27Zm-.83-6.57H17v4.89H14.25V14.73h3.16a4.44,4.44,0,0,1,4.24,3.18Zm-5.25,0h-3a4.43,4.43,0,0,1,3-3Zm0,6.57V27a4.47,4.47,0,0,1-2.84-2.51Zm1.67,0H17V27.2H14.25Zm2.88,10.83a1.52,1.52,0,0,1,1.44.73A4.14,4.14,0,0,1,19,38.1a4.14,4.14,0,0,1-.42,2.06,1.53,1.53,0,0,1-1.44.72,1.52,1.52,0,0,1-1.45-.72,4.14,4.14,0,0,1-.42-2.06A4.14,4.14,0,0,1,15.68,36a1.5,1.5,0,0,1,1.45-.73Zm-8.49,0a1.52,1.52,0,0,1,1.45.73,4.14,4.14,0,0,1,.42,2.06,4.14,4.14,0,0,1-.42,2.06,1.54,1.54,0,0,1-1.45.72,1.54,1.54,0,0,1-1.45-.72,4.14,4.14,0,0,1-.42-2.06A4.14,4.14,0,0,1,7.19,36a1.52,1.52,0,0,1,1.45-.73ZM19.51,38.1A4.18,4.18,0,0,1,19.92,36a1.52,1.52,0,0,1,1.45-.73,1.52,1.52,0,0,1,1.44.73,4.17,4.17,0,0,1,.42,2.06,4.14,4.14,0,0,1-.42,2.06,1.51,1.51,0,0,1-1.44.72,1.52,1.52,0,0,1-1.45-.72,4.15,4.15,0,0,1-.41-2.06Zm53.7-14.31a8.25,8.25,0,0,1-3.5-.81A8.36,8.36,0,1,1,65.25,7.56a8.19,8.19,0,0,1,3.93,1,8,8,0,0,1,4-1.11,8.16,8.16,0,1,1,0,16.31Z"/><path class="cls-1" d="M66.66,15.42H65.08a8.87,8.87,0,0,1,.1-1.06h6.06a6.64,6.64,0,0,0-.37-1.27H65.5A8,8,0,0,1,66,12h4.37a7.06,7.06,0,0,0-1-1.27H66.73a10.44,10.44,0,0,1,1-1.1A6.77,6.77,0,1,0,65.25,22.7,6.69,6.69,0,0,0,68.18,22a9.52,9.52,0,0,1-.83-.72h1.27c.2-.16.35-.36.53-.53a6.38,6.38,0,0,0,.73-.74H66.35a7.06,7.06,0,0,1-.52-1H70.5A6.7,6.7,0,0,0,71,17.78H65.37a9.72,9.72,0,0,1-.21-1.1h6.11a6.38,6.38,0,0,0,.1-1c0-.1,0-.19,0-.28Z"/><path class="cls-1" d="M53.62,55.33l-3.75,3.74,7.58,7.59,9.16-9.16,9.16,9.16,7.58-7.59-2.16-2.15-1.58-1.59L74.2,49.92l9.15-9.16-7.58-7.59-9.16,9.17-9.16-9.17-7.58,7.59L59,49.92l-3.82,3.82Z"/></g></g></svg>