<svg xmlns="http://www.w3.org/2000/svg" viewBox="0 0 366.62 251.79"><defs><style>.cls-1{fill:#072758;}</style></defs><title>Varlık 1</title><g id="katman_2" data-name="katman 2"><g id="Layer_1" data-name="Layer 1"><path class="cls-1" d="M243.24,213.8a83.13,83.13,0,0,1-46.7-14.3h-157a17.7,17.7,0,0,1-17.67-17.68V86.49H172.1a84,84,0,0,1,34.31-31.22H21.89V39.56A17.69,17.69,0,0,1,39.56,21.89H291.39a17.69,17.69,0,0,1,17.67,17.67v15.7h-29a83.55,83.55,0,0,1,39.56,108.89L331,174.69V39.56A39.61,39.61,0,0,0,291.39,0H39.56A39.61,39.61,0,0,0,0,39.56V181.83a39.61,39.61,0,0,0,39.56,39.56H290.77l-15.18-14.11a83.27,83.27,0,0,1-32.35,6.52Z"/><path class="cls-1" d="M362.05,227l-58.77-54.63a73.52,73.52,0,1,0-20.7,19.9L342.53,248a14.33,14.33,0,1,0,19.52-21ZM243,81.77a48.55,48.55,0,1,1-48.55,48.54A48.6,48.6,0,0,1,243,81.77Z"/><path class="cls-1" d="M214.22,146.36V125.13l-5.39,4.17-3.55-4.86,9.51-7h6.29v28.91Z"/><path class="cls-1" d="M231.82,146.36v-5.71l11.27-10.21c1.43-1.35,2.37-2.7,2.37-4.45a3.36,3.36,0,0,0-3.6-3.47c-2.28,0-3.79,1.79-4.08,4.37l-6.57-.9c.65-5.84,5.39-9.31,11-9.31,5.31,0,10.45,2.82,10.45,8.86,0,4.12-2.4,6.53-5.06,8.9l-6.7,6h11.8v6Z"/><path class="cls-1" d="M268.32,147.14c-5.27,0-10-2.29-11.6-7.68l6.37-1.67a4.93,4.93,0,0,0,4.9,3.59c2,0,4.21-1,4.21-3.67,0-2.94-3-3.8-5.88-3.8h-1.84v-5h2c2.57,0,5.07-.66,5.07-3.43,0-2.08-1.76-3.19-3.64-3.19a4,4,0,0,0-4,3.23L257.58,124c1.39-4.86,6-7.35,10.78-7.35,5.1,0,10.17,2.61,10.17,8.17a6.33,6.33,0,0,1-4.86,6.28v.13a6.94,6.94,0,0,1,5.55,6.69C279.22,144.28,273.63,147.14,268.32,147.14Z"/><path class="cls-1" d="M50.31,135.3l-4.74,7.08H39.93l4.89-6.78,0-.08a4.5,4.5,0,0,1-1.39.22A6.33,6.33,0,0,1,37,129.33c0-4.47,3.49-7.13,7.74-7.13s7.75,2.72,7.75,7A10.47,10.47,0,0,1,50.31,135.3ZM44.79,126a3,3,0,0,0-3.11,3.16,2.93,2.93,0,0,0,3,3.08,3,3,0,0,0,3.11-3.1A3,3,0,0,0,44.79,126Z"/><path class="cls-1" d="M62.69,142.9c-3.88,0-7.38-2-7.38-6.1a4.9,4.9,0,0,1,3.52-4.69v-.06a4.39,4.39,0,0,1-3-4.24c0-3.64,3.22-5.61,6.85-5.61s6.86,1.89,6.86,5.52a4.34,4.34,0,0,1-3,4.3v.09a4.83,4.83,0,0,1,3.53,4.66C70.08,140.91,66.58,142.9,62.69,142.9Zm0-9a2.62,2.62,0,0,0-2.75,2.66,2.74,2.74,0,0,0,5.47,0A2.62,2.62,0,0,0,62.69,133.94Zm0-8.13a2.2,2.2,0,0,0-2.33,2.24,2.27,2.27,0,0,0,2.33,2.34,2.34,2.34,0,0,0,2.36-2.34A2.28,2.28,0,0,0,62.69,125.81Z"/><path class="cls-1" d="M86,138.55v3.83H81.6v-3.83H72.35v-3.92l8-11.9h5.58v12h2.72v3.78ZM81.62,127.5h-.08l-4.66,7.27h4.74Z"/><path class="cls-1" d="M104.11,135.3l-4.75,7.08H93.73l4.88-6.78.06-.08a4.55,4.55,0,0,1-1.39.22,6.34,6.34,0,0,1-6.47-6.41c0-4.47,3.5-7.13,7.75-7.13s7.74,2.72,7.74,7A10.53,10.53,0,0,1,104.11,135.3ZM98.58,126a3,3,0,0,0-3.11,3.16,3.09,3.09,0,1,0,6.17,0A3,3,0,0,0,98.58,126Z"/><path class="cls-1" d="M116.29,142.9c-3.58,0-6.83-1.55-7.88-5.21l4.33-1.14a3.35,3.35,0,0,0,3.33,2.44c1.33,0,2.86-.67,2.86-2.5,0-2-2.06-2.58-4-2.58h-1.25V130.5H115c1.75,0,3.44-.45,3.44-2.33A2.24,2.24,0,0,0,116,126a2.71,2.71,0,0,0-2.69,2.19l-4.33-1c1-3.3,4.05-5,7.33-5,3.47,0,6.91,1.78,6.91,5.55a4.31,4.31,0,0,1-3.3,4.27v.09a4.71,4.71,0,0,1,3.77,4.55C123.7,141,119.9,142.9,116.29,142.9Z"/><path class="cls-1" d="M127.34,142.38v-3.89l7.66-6.94a4.13,4.13,0,0,0,1.61-3,2.28,2.28,0,0,0-2.44-2.36c-1.56,0-2.58,1.22-2.78,3l-4.47-.61c.45-4,3.67-6.33,7.5-6.33,3.61,0,7.1,1.91,7.1,6,0,2.8-1.63,4.44-3.44,6.05l-4.55,4h8v4.06Z"/><path class="cls-1" d="M152.32,142.9c-4.27,0-7.74-2.72-7.74-7a10.55,10.55,0,0,1,2.19-6.08l4.75-7.07h5.63l-4.83,6.71-.08.14a4.36,4.36,0,0,1,1.39-.22,6.31,6.31,0,0,1,6.43,6.41C160.06,140.24,156.57,142.9,152.32,142.9Zm0-10.1a3,3,0,0,0-3.11,3.11,3,3,0,0,0,3.08,3.11,3.11,3.11,0,0,0,0-6.22Z"/><path class="cls-1" d="M169.89,142.9c-3.58,0-6.55-1.88-7.46-5l4.24-1.31a3.3,3.3,0,0,0,3.17,2.36,2.74,2.74,0,0,0,2.94-2.86c0-2.33-2.11-3-4-3a16.25,16.25,0,0,0-4.8.86l.47-11.24h12.05v4h-7.91l-.17,3.11a9.46,9.46,0,0,1,2-.19c3.94,0,7.11,2.11,7.11,6.24C177.47,140.66,173.75,142.9,169.89,142.9Z"/></g></g></svg>