<svg xmlns="http://www.w3.org/2000/svg" viewBox="0 0 93.74 63.79"><defs><style>.cls-1{fill:#fff;}</style></defs><title>Varlık 1</title><g id="katman_2" data-name="katman 2"><g id="Layer_1" data-name="Layer 1"><path class="cls-1" d="M39.93,41.68a.64.64,0,0,0,.65-.51,5.62,5.62,0,0,0,.15-1.49,5.51,5.51,0,0,0-.15-1.5.63.63,0,0,0-.65-.49.64.64,0,0,0-.65.49,5.06,5.06,0,0,0-.16,1.5,5.21,5.21,0,0,0,.16,1.49.65.65,0,0,0,.65.51Z"/><path class="cls-1" d="M31.09,37.69a.65.65,0,0,0-.65.49,5.06,5.06,0,0,0-.16,1.5,5.17,5.17,0,0,0,.16,1.49.64.64,0,0,0,.65.51.63.63,0,0,0,.65-.51,5.57,5.57,0,0,0,.15-1.49,5.51,5.51,0,0,0-.15-1.5.62.62,0,0,0-.65-.49Z"/><path class="cls-1" d="M44.35,37.69a.63.63,0,0,0-.65.49,5.06,5.06,0,0,0-.16,1.5,5.17,5.17,0,0,0,.16,1.49.67.67,0,0,0,1.3,0,5.57,5.57,0,0,0,.15-1.49,5.51,5.51,0,0,0-.15-1.5.62.62,0,0,0-.65-.49Z"/><path class="cls-1" d="M35.52,37.69a.65.65,0,0,0-.66.49,5.43,5.43,0,0,0-.16,1.5,5.55,5.55,0,0,0,.16,1.49.64.64,0,0,0,.66.51.63.63,0,0,0,.64-.51,5.57,5.57,0,0,0,.15-1.49,5.51,5.51,0,0,0-.15-1.5.62.62,0,0,0-.64-.49Z"/><path class="cls-1" d="M17.84,41.68a.62.62,0,0,0,.64-.51,5.55,5.55,0,0,0,.16-1.49,5.43,5.43,0,0,0-.16-1.5.61.61,0,0,0-.64-.49.63.63,0,0,0-.65.49,5,5,0,0,0-.17,1.5,5.15,5.15,0,0,0,.17,1.49.64.64,0,0,0,.65.51Z"/><path class="cls-1" d="M9,41.68a.63.63,0,0,0,.65-.51,5.62,5.62,0,0,0,.15-1.49,5.51,5.51,0,0,0-.15-1.5A.62.62,0,0,0,9,37.69a.63.63,0,0,0-.65.49,5.43,5.43,0,0,0-.16,1.5,5.6,5.6,0,0,0,.16,1.49.64.64,0,0,0,.65.51Z"/><path class="cls-1" d="M13.42,37.69a.63.63,0,0,0-.65.49,5.06,5.06,0,0,0-.16,1.5,5.17,5.17,0,0,0,.16,1.49.64.64,0,0,0,.65.51.63.63,0,0,0,.65-.51,5.57,5.57,0,0,0,.15-1.49,5.51,5.51,0,0,0-.15-1.5.62.62,0,0,0-.65-.49Z"/><path class="cls-1" d="M22.25,41.68a.64.64,0,0,0,.66-.51,6.18,6.18,0,0,0,.14-1.49,5.59,5.59,0,0,0-.14-1.5.68.68,0,0,0-1.31,0,5.51,5.51,0,0,0-.15,1.5,5.68,5.68,0,0,0,.15,1.49.65.65,0,0,0,.65.51Z"/><path class="cls-1" d="M86.56,0H6.19A6.24,6.24,0,0,0,0,6.27V53a6.24,6.24,0,0,0,6.19,6.27H58.71l-1.65-1.65L55.4,56,50,50.61a3.31,3.31,0,0,1,0-4.69l7.57-7.57a3.33,3.33,0,0,1,4.68,0L67.91,44,83.83,28a3.32,3.32,0,0,1,4.69,0l.92.93,1.65,1.66,1.66,1.65v-26A6.24,6.24,0,0,0,86.56,0ZM45.86,41.83a1.9,1.9,0,0,1-3,0,4.35,4.35,0,0,1-.43-2.15,4.38,4.38,0,0,1,.43-2.15,1.9,1.9,0,0,1,3,0,4.38,4.38,0,0,1,.43,2.15,4.35,4.35,0,0,1-.43,2.15Zm-10.34.75A1.6,1.6,0,0,1,34,41.83a4.45,4.45,0,0,1-.43-2.14A4.56,4.56,0,0,1,34,37.53a1.61,1.61,0,0,1,1.52-.75,1.59,1.59,0,0,1,1.5.75,4.42,4.42,0,0,1,.43,2.16A4.33,4.33,0,0,1,37,41.83a1.59,1.59,0,0,1-1.5.75ZM38,39.68a4.32,4.32,0,0,1,.44-2.14,1.57,1.57,0,0,1,1.5-.76,1.58,1.58,0,0,1,1.51.76,4.45,4.45,0,0,1,.43,2.14,4.46,4.46,0,0,1-.43,2.15,1.6,1.6,0,0,1-1.51.75,1.56,1.56,0,0,1-1.5-.75A4.34,4.34,0,0,1,38,39.68ZM32.6,41.83a1.6,1.6,0,0,1-1.51.75,1.58,1.58,0,0,1-1.5-.75,4.34,4.34,0,0,1-.44-2.15,4.26,4.26,0,0,1,.44-2.15,1.58,1.58,0,0,1,1.5-.75,1.6,1.6,0,0,1,1.51.75A4.38,4.38,0,0,1,33,39.68a4.35,4.35,0,0,1-.43,2.15Zm-17.67,0a1.61,1.61,0,0,1-1.51.75,1.6,1.6,0,0,1-1.51-.75,4.35,4.35,0,0,1-.43-2.15,4.38,4.38,0,0,1,.43-2.15,1.61,1.61,0,0,1,1.51-.75,1.61,1.61,0,0,1,1.51.75,4.38,4.38,0,0,1,.43,2.15,4.35,4.35,0,0,1-.43,2.15ZM9.78,23.69v-3.3h3.33v3.37H9.79s0-.05,0-.07Zm13,0s0,0,0,.07H19.44V20.39h3.33ZM19.44,25.5h2.95a4.6,4.6,0,0,1-2.95,2.61Zm-.87-6.85H17.7v5.11H14.84V15.33h3.29a4.66,4.66,0,0,1,4.43,3.32Zm-5.46,0H10a4.65,4.65,0,0,1,3.12-3.11Zm0,6.85v2.61a4.64,4.64,0,0,1-3-2.61Zm1.73,0H17.7v2.82H14.84Zm3,11.28a1.57,1.57,0,0,1,1.5.76,4.32,4.32,0,0,1,.44,2.14,4.23,4.23,0,0,1-.44,2.15,1.58,1.58,0,0,1-1.5.75,1.59,1.59,0,0,1-1.51-.75,4.46,4.46,0,0,1-.43-2.15,4.33,4.33,0,0,1,.43-2.14,1.59,1.59,0,0,1,1.51-.76ZM9,36.78a1.58,1.58,0,0,1,1.51.76,4.33,4.33,0,0,1,.43,2.14,4.35,4.35,0,0,1-.43,2.15A1.6,1.6,0,0,1,9,42.58a1.59,1.59,0,0,1-1.51-.75,4.46,4.46,0,0,1-.43-2.15,4.45,4.45,0,0,1,.43-2.14A1.59,1.59,0,0,1,9,36.78Zm11.32,2.9a4.33,4.33,0,0,1,.43-2.14,1.58,1.58,0,0,1,1.51-.76,1.58,1.58,0,0,1,1.51.76,4.45,4.45,0,0,1,.43,2.14,4.46,4.46,0,0,1-.43,2.15,1.6,1.6,0,0,1-1.51.75,1.58,1.58,0,0,1-1.51-.75,4.35,4.35,0,0,1-.43-2.15Zm55.94-14.9a8.4,8.4,0,0,1-3.64-.85A8.7,8.7,0,1,1,68,7.88,8.45,8.45,0,0,1,72.07,9a8.31,8.31,0,0,1,4.19-1.16,8.5,8.5,0,1,1,0,17Z"/><path class="cls-1" d="M89.44,47,78.75,57.63l-1.66,1.65h9.47A6.23,6.23,0,0,0,92.75,53V43.63Z"/><path class="cls-1" d="M69.45,16.06H67.79A6.85,6.85,0,0,1,67.91,15h6.3a6.85,6.85,0,0,0-.38-1.32h-5.6a8.67,8.67,0,0,1,.47-1.13h4.55a7.16,7.16,0,0,0-1-1.32H69.52a8.12,8.12,0,0,1,1-1.15A7.05,7.05,0,1,0,68,23.64a6.94,6.94,0,0,0,3-.72,8.71,8.71,0,0,1-.86-.75h1.32a5.71,5.71,0,0,0,.55-.55,6.91,6.91,0,0,0,.76-.77H69.12a7.7,7.7,0,0,1-.55-1h4.88A8.14,8.14,0,0,0,74,18.51H68.1a9.82,9.82,0,0,1-.23-1.13h6.37a5.9,5.9,0,0,0,.11-1c0-.1,0-.19,0-.29Z"/><path class="cls-1" d="M93.74,38,91.1,35.31l-1.66-1.66-3.27-3.27L67.91,48.65l-8-8-7.57,7.58L60.08,56l1.66,1.65,1.66,1.65,4.51,4.51,4.5-4.51,1.66-1.65L75.73,56,89.44,42.26l1.66-1.65,1.65-1.67Z"/></g></g></svg>