<svg xmlns="http://www.w3.org/2000/svg" viewBox="0 0 55.65 75.56"><defs><style>.cls-1{fill:#fff;}</style></defs><title>Varlık 1</title><g id="katman_2" data-name="katman 2"><g id="Layer_1" data-name="Layer 1"><path class="cls-1" d="M23.93,66.74a2.52,2.52,0,1,1-2.52-2.51,2.52,2.52,0,0,1,2.52,2.51Z"/><path class="cls-1" d="M38.23,28.38l.15-.14h0l2.13-2.14a2.07,2.07,0,1,0-2.93-2.93L35.3,25.45,33,23.17a2.07,2.07,0,1,0-2.93,2.93l2.13,2.14h0l.15.14-2.28,2.28A2.07,2.07,0,0,0,33,33.59l2.28-2.27,2.28,2.27a2.07,2.07,0,1,0,2.93-2.93Z"/><path class="cls-1" d="M55.65,42.92c-2.56-.05-5.13-.11-7.69-.13a1.6,1.6,0,0,0-.85.33q-7.62,5.67-15.23,11.37l-.64.44V42.81H14.92V42q0-13.59,0-27.16c0-.19,0-.38,0-.57H55.65ZM35.29,46.76l.52-.36c3-2.22,6-4.39,8.9-6.68a4.63,4.63,0,0,1,3.54-1.1,32.59,32.59,0,0,0,3.28,0V18.42H19.07V38.63H35.29Z"/><path class="cls-1" d="M40.3,48.2v9.73H2.52V10.07H40.3v4.21h2.52V5.55A5.56,5.56,0,0,0,37.27,0H5.55A5.56,5.56,0,0,0,0,5.55V70a5.55,5.55,0,0,0,5.55,5.54H37.27A5.55,5.55,0,0,0,42.82,70V46.32ZM25.19,3.77h1.26a1.27,1.27,0,0,1,0,2.53H25.19a1.27,1.27,0,0,1,0-2.53Zm-8.81,0h5a1.27,1.27,0,0,1,0,2.53h-5a1.27,1.27,0,0,1,0-2.53Zm5,68a5,5,0,1,1,5-5.05A5,5,0,0,1,21.41,71.79Z"/></g></g></svg>