<svg xmlns="http://www.w3.org/2000/svg" viewBox="0 0 52.18 55.12"><defs><style>.cls-1{fill:#fff;}</style></defs><title>Varlık 1</title><g id="katman_2" data-name="katman 2"><g id="Layer_1" data-name="Layer 1"><path class="cls-1" d="M38.18,23.68l.47-1,.86.4.6-1.28-17-8-.6,1.28.86.41-.46,1,.15.07c-1.41,3-.05,8.55,1.09,12.1-3.47,1.38-8.63,3.85-10,6.83L14,35.4l-.47,1-.86-.4-.6,1.27,17,8L29.63,44l-.86-.41.46-1-.16-.08c1.42-3,.06-8.54-1.08-12.09,3.47-1.38,8.63-3.85,10-6.84l.16.08ZM26.8,29.88c.87,2.57,2.86,9.19,1.41,12.25l-1.47-.7a1,1,0,0,0,0-.69l-2.53-5.39A1,1,0,0,0,23,34.8c-1.79.4-6,1.38-6,1.38a1.06,1.06,0,0,0-.56.4L15,35.88c1.45-3.06,7.83-5.72,10.37-6.68C24.5,26.63,22.52,20,24,17L37.17,23.2c-1.45,3.06-7.83,5.72-10.37,6.68Z"/><path class="cls-1" d="M25.83,21a1.24,1.24,0,0,0-.67,1.42l1.38,4.47a1,1,0,0,0,1.34.63l4.34-1.77a1.25,1.25,0,0,0,.67-1.42Z"/><path class="cls-1" d="M36.89,48.08c-.39.22-.78.43-1.18.62a1.18,1.18,0,0,0-.19.11l-.19.07A21.45,21.45,0,0,1,30,50.58h-.07c-.44.08-.88.14-1.32.19h0A22,22,0,0,1,5.45,36.31l-.14-.39a21.91,21.91,0,0,1,0-13.8.78.78,0,0,1,0-.14c0-.13.08-.25.13-.38l.06-.17A22,22,0,0,1,20.84,7.78h0l.31-.08h0A22.16,22.16,0,0,1,26,7.14l0,2.25c0,.7.45.9,1,.45l4.75-4a1,1,0,0,0,0-1.63L26.9.23c-.54-.44-1-.23-1,.47V2.94A25.91,25.91,0,0,0,7.65,10.58c-.49.48-1,1-1.38,1.49h0l0,.06A25.88,25.88,0,0,0,0,28.27a.61.61,0,0,0,0,.14c0,.2,0,.4,0,.6s0,.66,0,1c0,0,0,.07,0,.11A25.89,25.89,0,0,0,5.43,45s0,0,0,0c.32.42.66.83,1,1.23l.07.07c.35.4.72.79,1.1,1.17a25.94,25.94,0,0,0,14,7.27h.08A26.14,26.14,0,0,0,37.1,52.69l.22-.12.23-.1c.47-.23,1-.48,1.41-.74a2.1,2.1,0,1,0-2.07-3.65Z"/><path class="cls-1" d="M44.27,16.82a2.1,2.1,0,0,0,3.48-2.34c-.29-.44-.6-.87-.92-1.29a2.1,2.1,0,1,0-3.34,2.55q.4.53.78,1.08Z"/><path class="cls-1" d="M46.94,22.33c.13.42.25.85.36,1.28a2.11,2.11,0,0,0,2,1.58,2.37,2.37,0,0,0,.52-.06,2.1,2.1,0,0,0,1.51-2.55c-.13-.52-.28-1-.44-1.53a2.1,2.1,0,1,0-4,1.28Z"/><path class="cls-1" d="M45.6,43.15a2.1,2.1,0,0,0-3,.21q-.44.51-.9,1a2.1,2.1,0,0,0,3,2.93c.37-.38.73-.77,1.07-1.17a2.09,2.09,0,0,0-.21-3Z"/><path class="cls-1" d="M50.14,27.67a2.09,2.09,0,0,0-2.16,2c0,.44,0,.89-.08,1.33a2.1,2.1,0,0,0,1.9,2.29H50a2.1,2.1,0,0,0,2.09-1.9q.08-.8.09-1.59a2.09,2.09,0,0,0-2-2.16Z"/><path class="cls-1" d="M49.21,35.8A2.1,2.1,0,0,0,46.49,37c-.16.41-.34.83-.53,1.23A2.09,2.09,0,0,0,47,41a2,2,0,0,0,.88.2A2.08,2.08,0,0,0,49.77,40c.22-.48.43-1,.62-1.46a2.09,2.09,0,0,0-1.18-2.72Z"/><path class="cls-1" d="M42.06,11a2.08,2.08,0,0,0-.44-2.93c-.42-.31-.86-.62-1.3-.91A2.1,2.1,0,0,0,38,10.68c.37.24.74.5,1.1.76A2.1,2.1,0,0,0,42.06,11Z"/></g></g></svg>