<svg xmlns="http://www.w3.org/2000/svg" viewBox="0 0 20 20"><defs><style>.cls-1{fill:silver;}</style></defs><title>Varlık 1</title><g id="katman_2" data-name="katman 2"><g id="Layer_1" data-name="Layer 1"><path class="cls-1" d="M10.4,0c.35.05.71.09,1.06.15a7.79,7.79,0,0,1,3.86,1.91A7.91,7.91,0,0,1,17.84,6.5c.08.42.09.85.14,1.28A1.28,1.28,0,0,1,18,8h2v8H18c0,.34,0,.65,0,1a2,2,0,0,1-1.72,2,2.42,2.42,0,0,1-.38,0h-3a.3.3,0,0,0-.28.14,2,2,0,0,1-3.51-1.8A1.89,1.89,0,0,1,10.7,16a1.88,1.88,0,0,1,1.93.82.32.32,0,0,0,.29.15c.95,0,1.9,0,2.85,0H16a.69.69,0,0,0,0-.13c0-2.9,0-5.79,0-8.69a6,6,0,0,0-2.13-4.73,5.8,5.8,0,0,0-3-1.38A6,6,0,0,0,4,8.15c0,1.58,0,3.15,0,4.73V16H.15L0,16V8H2a3,3,0,0,1,0-.3c0-.35.05-.69.11-1A7.9,7.9,0,0,1,4.78,1.94,7.8,7.8,0,0,1,8.48.16C8.83.09,9.18.05,9.54,0Z"/><path class="cls-1" d="M7.2,12h5.6a3,3,0,0,1-2.57,2A3,3,0,0,1,7.2,12Z"/><path class="cls-1" d="M8,8A1,1,0,0,1,9,9a1,1,0,0,1-1,1A1,1,0,0,1,7,9,1,1,0,0,1,8,8Z"/><path class="cls-1" d="M11,9a1,1,0,0,1,1-1,1,1,0,0,1,1,1,1,1,0,0,1-1,1A1,1,0,0,1,11,9Z"/></g></g></svg>